<?xml version="1.0" encoding="UTF-8"?>
<!DOCTYPE svg PUBLIC "-//W3C//DTD SVG 1.1//EN" "http://www.w3.org/Graphics/SVG/1.1/DTD/svg11.dtd">
<svg xmlns="http://www.w3.org/2000/svg" version="1.1" width="30px" height="30px" style="shape-rendering:geometricPrecision; text-rendering:geometricPrecision; image-rendering:optimizeQuality; fill-rule:evenodd; clip-rule:evenodd" xmlns:xlink="http://www.w3.org/1999/xlink">
<g><path style="opacity:0.923" fill="#f13434" d="M 10.5,-0.5 C 13.1667,-0.5 15.8333,-0.5 18.5,-0.5C 23.6498,3.4136 25.8164,8.74693 25,15.5C 28.0092,18.2019 28.5092,21.0353 26.5,24C 18.5,24.6667 10.5,24.6667 2.5,24C 0.49082,21.0353 0.99082,18.2019 4,15.5C 3.18358,8.74693 5.35024,3.4136 10.5,-0.5 Z"/></g>
<g><path style="opacity:0.754" fill="#f13535" d="M 17.5,29.5 C 15.5,29.5 13.5,29.5 11.5,29.5C 10.7659,28.2921 10.4326,26.9587 10.5,25.5C 13.1667,25.5 15.8333,25.5 18.5,25.5C 18.5674,26.9587 18.2341,28.2921 17.5,29.5 Z"/></g>
</svg>
