<svg width="228" height="289" viewBox="0 0 228 289" fill="none" xmlns="http://www.w3.org/2000/svg">
<mask id="mask0_6_953" style="mask-type:luminance" maskUnits="userSpaceOnUse" x="1" y="179" width="196" height="110">
<path d="M119.708 289C115.144 289 110.638 287.748 107.479 285.298L42.5479 234.924C32.6168 234.066 23.0533 231.464 15.4082 227.05C-3.56087 216.099 -3.56087 198.342 15.4082 187.391C24.8942 181.914 37.3239 179.178 49.7564 179.178C62.1861 179.178 74.6187 181.914 84.1018 187.391C88.5964 189.985 91.9881 192.969 94.3546 196.145C95.0209 196.363 95.7044 196.564 96.3247 196.828L190.57 237.325C198.407 240.691 199.168 246.711 192.264 250.697L130.644 286.274C127.477 288.104 123.571 289 119.708 289Z" fill="white"/>
</mask>
<g mask="url(#mask0_6_953)">
<path d="M-3.56088 289H199.168V179.177H-3.56088V289Z" fill="#B0B0AE"/>
</g>
<path d="M181.041 204.629L120.871 170.071C116.801 167.721 111.563 162.19 108.685 157.207L96.3504 135.84C94.6157 132.836 90.8018 128.81 88.3463 127.394L71.3445 117.578C69.7104 116.633 68.3864 114.338 68.3864 112.457C68.3864 110.57 69.7104 109.803 71.3445 110.748L88.3463 120.564C92.4158 122.914 97.6542 128.442 100.532 133.428L112.867 154.792C114.601 157.799 118.415 161.825 120.871 163.241L181.041 197.802C182.672 198.744 183.993 201.039 183.993 202.92C183.993 204.807 182.672 205.571 181.041 204.629Z" fill="#31A23F"/>
<path d="M85.4113 122.936C83.5331 124.613 83.5187 126.121 83.7312 127.092C84.2223 129.315 88.9581 133.448 92.3183 134.292C93.2373 134.361 94.5067 133.996 94.837 133.611C94.837 133.611 94.3717 133.157 93.4068 131.885C93.4125 131.199 93.3608 130.682 93.3608 129.947C93.3608 126.765 87.2293 121.69 85.4113 122.936Z" fill="#F89C96"/>
<path d="M91.3819 93.8525C91.3819 93.8525 92.5939 110.366 93.3549 113.988C94.0499 118.298 96.9563 123.005 96.8874 124.703C96.8185 126.4 96.4652 127.764 96.4652 127.764L92.8811 124.031C92.8811 124.031 91.1723 127.015 89.564 127.092C87.9586 127.167 84.9948 124.806 84.788 123.353C84.5783 121.897 85.1154 121.595 85.6869 121.285C86.2527 120.972 88.1998 123.93 88.9982 121.064C88.0764 120.501 85.4227 118.876 85.4227 118.876C84.8397 116.429 86.1608 113.451 85.8793 111.581C84.63 106.802 80.2274 98.7721 79.6243 96.8307C79.024 94.895 91.3819 93.8525 91.3819 93.8525Z" fill="#F89C96"/>
<path d="M82.6226 211.636C85.2562 218.839 94.343 220.927 96.9277 223.546C98.1569 224.792 99.5182 228.532 98.1339 230.861C90.3797 238.365 77.637 226.177 77.637 226.177C77.637 226.177 70.1585 226.593 68.3865 222.294C66.6978 218.977 68.3865 209.838 68.3865 209.838C68.3865 209.838 80.6611 210.355 82.6226 211.636Z" fill="#60362B"/>
<path d="M16.7033 192.736C16.7033 205.266 23.9061 205.404 21.4132 210.668C20.0979 213.784 11.9818 215.562 7.42696 211.406C4.04957 208.324 2.16273 196.957 2.16273 196.957C2.16273 196.957 -1.57654 189.479 0.778441 186.018C3.13055 182.555 7.77157 183.517 7.77157 183.517C7.77157 183.517 14.6269 192.802 16.7033 192.736Z" fill="#60362B"/>
<path d="M49.317 122.744C54.0959 144.332 66.3504 164.691 65.3136 168.589C62.5422 177.569 65.5893 211.498 65.5893 211.498C67.8754 215.654 73.1769 218.741 82.1546 214.169C85.2333 212.181 84.7709 199.961 84.7881 187.75C84.7996 179.536 84.3028 167.247 83.6394 162.405C84.0098 137.27 70.9196 98.2177 70.9196 98.2177L49.317 122.744Z" fill="#294899"/>
<path d="M70.9195 98.2178C70.7156 97.1609 52.0165 98.4418 52.0165 98.4418L27.7143 94.4786C27.7143 94.4786 24.3197 101.822 22.8665 109.616C21.4133 117.411 20.2358 152.032 19.1961 157.687C6.52519 167.293 10.4712 174.246 4.65556 181.725C2.57916 183.801 2.84339 189.786 6.99907 192.902C9.36553 194.772 11.821 195.389 14.0985 195.335C19.2335 195.217 21.4764 192.693 22.8665 187.75C24.6269 181.492 30.1152 173.457 35.816 167.181C42.6684 161.782 47.654 122.965 49.3169 122.744C49.3169 122.744 68.3865 112.457 70.9195 98.2178Z" fill="#3E5FB5"/>
<path d="M58.7655 27.2238C58.7655 27.2238 59.9947 31.032 59.1647 32.4881C58.3348 33.9413 55.6954 34.3749 55.6954 34.3749C55.6954 34.3749 64.7937 60.0988 70.4026 61.2418C76.0115 62.3848 76.9448 57.2958 76.9448 57.2958L76.425 41.0923L61.0545 24.1853L58.7655 27.2238Z" fill="#C77B75"/>
<path d="M70.9194 48.8809L75.3882 40.3628L76.1148 40.9888L70.9194 48.8809Z" fill="#985D59"/>
<path d="M171.121 251.102L168.737 252.48L172.956 228.896L155.09 218.583L157.476 217.205L175.34 227.521L171.121 251.102Z" fill="#23642F"/>
<path d="M168.737 252.48L159.311 247.038L155.09 218.583L172.956 228.896L168.737 252.48Z" fill="#2C883B"/>
<path d="M168.324 257.934C168.324 266.849 162.066 270.462 154.346 266.004C146.626 261.547 140.366 250.708 140.366 241.791C140.366 232.877 146.626 229.264 154.346 233.721C162.066 238.178 168.324 249.02 168.324 257.934Z" fill="#414042"/>
<path d="M181.084 250.562C181.084 241.648 174.826 230.806 167.103 226.349C163.332 224.172 159.915 223.925 157.399 225.275L144.544 232.696C147.068 231.289 150.526 231.515 154.346 233.721C162.066 238.178 168.324 249.02 168.324 257.934C168.324 262.205 166.885 265.255 164.541 266.786L164.544 266.791L177.284 259.431L177.281 259.428C179.636 257.9 181.084 254.844 181.084 250.562Z" fill="#2E2D2D"/>
<path d="M164.266 255.591C164.266 261.915 159.823 264.479 154.346 261.314C148.869 258.152 144.427 250.461 144.427 244.135C144.427 237.808 148.869 235.246 154.346 238.408C159.823 241.57 164.266 249.264 164.266 255.591Z" fill="#1E1D1C"/>
<path d="M145.684 244.861C145.684 250.384 149.567 257.104 154.346 259.861C157.112 261.461 159.57 261.386 161.161 259.962C159.585 260.927 157.379 260.826 154.938 259.41C150.15 256.645 146.276 249.933 146.276 244.41C146.276 242.093 146.957 240.352 148.108 239.321C146.609 240.255 145.684 242.17 145.684 244.861Z" fill="#161413"/>
<path d="M146.276 244.411C146.276 249.933 150.15 256.645 154.938 259.411C157.379 260.826 159.585 260.927 161.161 259.962L161.179 259.953C162.327 258.919 163.011 257.179 163.011 254.864C163.011 249.342 159.128 242.618 154.346 239.861C151.908 238.446 149.699 238.348 148.126 239.313L148.108 239.321C146.957 240.352 146.276 242.093 146.276 244.411Z" fill="#8D8D8D"/>
<path d="M148.763 246.61C148.763 250.163 151.267 254.508 154.346 256.286C156.534 257.552 158.439 257.205 159.326 255.588C158.344 256.065 157.011 255.935 155.584 255.08C152.474 253.305 149.969 248.96 149.969 245.404C149.969 244.39 150.159 243.532 150.541 242.9C149.461 243.468 148.763 244.738 148.763 246.61Z" fill="#363535"/>
<path d="M149.969 245.404C149.969 248.96 152.474 253.305 155.584 255.08C157.011 255.935 158.344 256.065 159.326 255.588C159.708 254.953 159.929 254.097 159.929 253.049C159.929 249.497 157.425 245.151 154.346 243.374C152.887 242.518 151.523 242.423 150.541 242.9C150.159 243.532 149.969 244.39 149.969 245.404Z" fill="#717374"/>
<path d="M159.34 257.903L156.957 259.281L161.178 235.697L143.312 225.384L145.696 224.008L163.562 234.321L159.34 257.903Z" fill="#23642F"/>
<path d="M156.957 259.281L147.531 253.839L143.312 225.384L161.178 235.697L156.957 259.281Z" fill="#2C883B"/>
<path d="M155.245 253.423C154.786 254.571 153.608 254.887 152.259 254.112C150.478 253.078 149.042 250.579 149.042 248.543C149.042 247.277 149.588 246.472 150.42 246.271C150.306 246.587 150.219 246.989 150.219 247.449C150.219 249.517 151.655 251.987 153.436 253.02C154.125 253.423 154.728 253.537 155.245 253.423Z" fill="#1F4621"/>
<path d="M155.446 252.245C155.446 252.704 155.389 253.106 155.245 253.422C154.728 253.537 154.125 253.422 153.436 253.02C151.655 251.986 150.219 249.517 150.219 247.449C150.219 246.989 150.305 246.587 150.42 246.271H150.449C150.966 246.185 151.569 246.3 152.258 246.673C154.01 247.707 155.446 250.206 155.446 252.245Z" fill="#23642F"/>
<path d="M175.34 227.521L161.178 235.697V233.405L175.34 225.229V227.521Z" fill="#2C883B"/>
<path d="M161.178 235.697L143.312 225.384V223.089L161.178 233.405V235.697Z" fill="#31A23F"/>
<path d="M175.34 225.229L161.178 233.405L143.312 223.089L157.476 214.916L175.34 225.229Z" fill="#31A23F"/>
<path d="M217.646 187.365L178.091 210.206L130.07 189.577C122.746 186.423 111.451 186.895 104.998 190.628L102.64 191.986L72.8035 168.839C67.3469 164.617 68.1625 158.089 74.633 154.37L102.878 138.057C109.349 134.321 120.624 133.85 127.947 137.003L216.07 174.855C223.39 178.012 224.099 183.632 217.646 187.365Z" fill="#31A23F"/>
<path d="M178.091 210.206L160.033 220.631C153.582 224.347 143.829 223.948 138.372 219.706L102.64 191.986L104.998 190.628C111.451 186.894 122.746 186.423 130.07 189.576L178.091 210.206Z" fill="#2C883B"/>
<path d="M135.521 230.459L75.3509 195.901C71.2814 193.549 66.043 188.017 63.1653 183.034L50.8276 161.667C49.0958 158.663 45.2819 154.637 42.8264 153.221L25.8245 143.405C24.1904 142.46 22.8665 140.168 22.8665 138.284C22.8665 136.397 24.1904 135.633 25.8245 136.575L42.8264 146.392C46.8959 148.744 52.1343 154.272 55.0119 159.258L67.3469 180.619C69.0815 183.626 72.8954 187.653 75.3509 189.068L135.521 223.629C137.149 224.571 138.473 226.866 138.473 228.747C138.473 230.634 137.149 231.398 135.521 230.459Z" fill="#31A23F"/>
<path d="M222.043 181.797C221.894 183.77 220.447 185.746 217.646 187.365L178.091 210.206L160.033 220.631C153.582 224.347 143.829 223.948 138.373 219.706L102.64 191.986L72.8037 168.839C70.3855 166.969 69.2712 164.646 69.2597 162.316L64.1046 161.659C64.1046 161.659 80.9427 200.728 81.0576 201.093V201.099C81.4913 202.463 82.4189 203.77 83.8606 204.89L132.112 242.294C136.779 245.915 145.122 246.266 150.65 243.072L186.724 222.167C188.479 221.154 190.917 219.086 192.198 217.561L227.606 182.506L222.043 181.797Z" fill="#31A23F"/>
<path d="M217.646 187.365L178.091 210.206L160.033 220.631C153.582 224.347 143.829 223.948 138.373 219.706L102.64 191.986L72.8037 168.838C67.347 164.617 68.1627 158.089 74.6331 154.37L102.879 138.057C109.349 134.321 120.624 133.85 127.948 137.003L216.07 174.855C223.39 178.011 224.1 183.632 217.646 187.365ZM221.193 174.7L126.948 134.206C119.111 130.837 107.046 131.345 100.142 135.332L69.9174 152.784C63.0104 156.771 62.1316 163.735 67.9645 168.261L138.1 222.676C143.938 227.199 154.358 227.638 161.265 223.649L222.885 188.075C229.789 184.088 229.031 178.069 221.193 174.7Z" fill="#47BB3D"/>
<path d="M30.5171 89.6997L27.7141 94.4786C27.7141 94.4786 32.7686 112.342 54.7877 105.972C67.114 102.925 70.9193 98.2179 70.9193 98.2179L69.4661 90.7394L54.7188 94.6854L30.5171 89.6997Z" fill="#272626"/>
<path d="M76.9449 89.5245C76.9449 89.5245 75.8622 93.9387 78.1913 96.8652C80.0494 98.0656 79.9834 99.1541 85.4515 97.8531C88.8605 97.0432 90.0179 95.9605 91.2672 95.0989C92.4648 94.2718 93.1196 92.2643 92.8008 90.8427C92.4045 89.0736 91.6491 87.2844 90.7703 86.4544C89.2826 85.0529 76.9449 89.5245 76.9449 89.5245Z" fill="#D84657"/>
<path d="M84.2854 31.8819C86.7782 33.9583 88.0246 39.0302 88.5789 42.7953C89.1332 46.5604 88.1883 50.1618 87.7604 54.5932C87.3325 59.0245 89.2711 74.1022 88.9925 78.0568C90.6553 83.9529 90.7932 88.1086 90.7932 88.1086C90.7932 88.1086 81.3761 93.7863 77.499 91.5692C75.8391 86.4687 76.1148 80.2136 76.1148 80.2136L73.5186 62.7638C73.5186 62.7638 75.8362 27.7263 84.2854 31.8819Z" fill="#A52025"/>
<path d="M41.6316 42.1294C41.6316 42.1294 44.1244 38.8066 55.6954 34.3752C62.8206 37.9766 68.6363 59.3035 72.0194 58.3328C76.2527 56.2564 74.8684 39.4298 74.8684 39.4298C74.8684 39.4298 86.9161 47.115 85.8076 60.6877C84.8397 71.7676 75.5634 76.2479 70.2187 86.0124C70.2187 87.3278 71.9591 91.986 69.5237 95.7252C68.2199 97.6638 61.6891 100.036 59.4146 100.926C29.894 109.536 30.5201 91.5696 30.5201 88.87C30.7269 85.0273 36.6086 81.2536 39.5351 68.6171C42.4616 55.9807 41.6316 42.1294 41.6316 42.1294Z" fill="#D82A36"/>
<path d="M72.0196 36.9366C80.5808 49.0878 77.6715 72.1465 77.6715 72.1465L82.7605 70.2769C82.7605 70.2769 87.0196 51.5806 76.9449 37.1434C75.4917 35.067 70.9799 35.7936 72.0196 36.9366Z" fill="#3E5FB5"/>
<path d="M55.0293 77.2356C69.231 75.9978 80.7703 70.9145 85.3597 67.2643C83.6337 78.7262 70.1902 94.4471 70.1902 94.4471C70.7043 97.1007 58.0419 103.758 43.016 103.244C41.3532 101.819 52.6427 90.7394 55.0293 77.2356Z" fill="#3E5FB5"/>
<path d="M31.1061 112.758C31.7638 121.587 36.1262 128.545 37.6857 137.79C37.4761 139.867 34.5697 142.359 33.8431 145.685C33.1136 149.008 33.0102 151.05 34.9832 152.782C39.9717 157.213 43.8546 155.969 45.0809 154.904C44.2136 154.177 41.8442 152.652 41.8442 152.652C41.2153 150.461 41.8701 147.925 44.0355 147.167C44.0355 147.167 45.9942 148.494 47.2751 149.8C48.7455 146.323 47.6541 144.019 47.6541 144.019C47.6541 144.019 45.9597 141.251 45.5088 137.546C45.0608 133.841 45.371 112.066 45.371 112.066C45.371 112.066 31.0716 109.226 31.1061 112.758Z" fill="#F89C96"/>
<path d="M30.9538 110.343C30.9538 110.343 29.0296 115.32 30.8188 118.606C32.4414 120.11 32.8349 120.983 38.4466 120.65C41.9446 120.444 43.2686 119.576 44.65 118.942C45.9739 118.336 46.7867 116.997 46.7178 115.544C46.6316 113.735 46.3789 111.314 45.6552 110.343C44.4346 108.709 30.9538 110.343 30.9538 110.343Z" fill="#D84657"/>
<path d="M41.6315 42.1293C41.6315 42.1293 32.2145 45.3142 29.7217 52.9335C27.7831 59.0248 33.4609 82.7068 32.0766 94.341C31.5626 100.32 30.2759 101.472 31.1059 112.759C34.0152 114.973 43.0158 113.853 45.3708 112.066C46.7551 105.418 45.3708 94.4788 45.3708 94.4788C45.3708 94.4788 46.4678 77.7182 47.7257 73.2897C43.1536 62.2127 52.8493 60.412 48.6936 51.4775C45.7843 45.1764 41.6315 42.1293 41.6315 42.1293Z" fill="#A52025"/>
<path d="M82.6569 7.64899C88.2658 10.5554 87.746 21.8765 87.746 21.8765L86.4995 22.7094C86.4995 22.7094 84.1446 39.9495 83.349 41.2993C82.5535 42.6491 80.7873 43.0656 79.3341 43.482C76.9447 43.8956 70.0894 41.6124 64.0669 34.5475C62.7143 33.6141 62.9239 30.9145 62.9239 30.9145C62.9239 30.9145 58.3518 28.6284 58.2484 25.4607C58.2484 24.7858 56.2754 18.1373 56.2754 18.1373L60.7413 16.6841L63.5471 5.98614L72.0107 4.84312C72.0107 4.84312 81.4105 7.54273 82.6569 7.64899Z" fill="#F89C96"/>
<path d="M82.1402 10.8681C78.5044 13.6194 68.6364 5.91696 66.1436 9.10193C63.9264 11.8015 68.5818 15.4029 68.6106 17.9302C68.6364 20.4575 66.6979 26.2043 65.2389 25.7275C62.9529 25.3025 63.1654 20.5264 60.3279 20.2134C57.4876 19.9004 58.1969 24.5787 58.2486 25.4604C57.5737 25.6672 54.5036 18.855 56.201 12.2065C57.5651 7.71193 59.2395 2.06283 66.8185 0.336802C74.61 -1.46964 87.3327 4.27132 82.1402 10.8681Z" fill="#CC721B"/>
<path d="M44.0959 39.3032C44.0959 39.3032 59.9116 49.6077 58.1999 78.057L65.6095 76.9283C67.9099 49.2975 51.8788 35.6214 51.8788 35.6214L44.0959 39.3032Z" fill="#3E5FB5"/>
</svg>
